<svg xmlns="http://www.w3.org/2000/svg" width="45" height="43" fill="none" viewBox="0 0 45 43">
  <path fill="#000" fill-rule="evenodd" d="M36.192 15.604c.247.185.456.347.548.439l-.804.803-.029-.025a15.688 15.688 0 0 0-.4-.31 77.81 77.81 0 0 0-1.028-.757c-.842-.61-1.963-1.41-3.19-2.28-2.454-1.74-5.324-3.754-7.219-5.078l.652-.93c1.896 1.325 4.77 3.34 7.225 5.082a392.08 392.08 0 0 1 3.2 2.288c.424.307.78.568 1.045.768Z" clip-rule="evenodd"/>
  <path fill="#F6671B" d="M24.396 7.931C16.13 17.577 11.295 22.703 2.22 31.201l10.235 10.782c12.171-7.98 17.41-13.135 23.883-25.539L24.396 7.931Z"/>
  <path fill="#6A2E12" d="m25.534 3.391 1.137 4.54 4.549 1.703-1.137-3.973 4.549-1.135L33.495.554 25.534 3.39Zm16.141 10.602-4.632.733-3.35-3.512 4.108-.51-.734-4.623 4.108-.51.5 8.422Z"/>
  <path fill="#FFE39B" d="M34.632 4.526 33.495.554l-3.412 1.135.568 3.405 3.98-.568Zm2.435 1.555 4.108-.51.289 3.577-3.362.811-1.035-3.878Z"/>
  <path fill="#3A0D00" fill-rule="evenodd" d="m33.78 0 1.383 4.832-4.549 1.136 1.249 4.361-5.552-2.077-1.285-5.132L33.78 0Zm-7.74 3.662.99 3.95 3.547 1.327-1.026-3.584L34.1 4.22l-.892-3.113-7.168 2.555Zm15.533 1.43-4.997.621.735 4.623-4.51.56 4.088 4.285 5.234-.828-.55-9.26Zm-.347 8.54-4.028.638-2.613-2.738 3.706-.46-.734-4.623 3.219-.4.45 7.584Z" clip-rule="evenodd"/>
  <path fill="#3A0D00" fill-rule="evenodd" d="m30.493 1.572 1.137 3.972-.82.234-1.137-3.972.82-.234Zm10.901 7.073-4.1.593.123.842 4.1-.592-.123-.843Z" clip-rule="evenodd"/>
  <path fill="#6A2E12" d="m28.377 6.796-3.98 1.135 11.94 8.513.57-3.972-8.53-5.676Z"/>
  <path fill="#E34D1A" d="m7.906 42.55 4.549-.567L2.22 31.2.514 34.605l7.392 7.946Z"/>
  <path fill="#3A0D00" fill-rule="evenodd" d="m28.45 6.333 8.917 5.933-.617 4.31-.034.065c-3.248 6.223-6.197 10.649-9.873 14.524-3.674 3.872-8.059 7.177-14.154 11.174l-.083.054L7.742 43 0 34.679l1.872-3.737.056-.052c9.062-8.486 13.886-13.6 22.144-23.235l.084-.098 4.293-1.224Zm-3.813 1.973c-8.21 9.574-13.049 14.703-22.07 23.152l-1.54 3.074 7.043 7.57 4.234-.529c6.032-3.96 10.33-7.21 13.92-10.993 3.59-3.786 6.49-8.121 9.702-14.268l.52-3.635-8.142-5.417-3.667 1.046Z" clip-rule="evenodd"/>
  <path fill="#3A0D00" fill-rule="evenodd" d="M2.53 30.907 12.764 41.69l-.62.586L1.91 31.493l.62-.586ZM24.644 7.585l11.942 8.513-.496.693-11.942-8.513.496-.693Z" clip-rule="evenodd"/>
  <path fill="#FF7E33" d="m22.674 16.307 2.429 2.39-2.396 2.425-2.429-2.39 2.396-2.425Z"/>
  <path fill="#3A0D00" fill-rule="evenodd" d="m24.299 18.703-1.62-1.594-1.597 1.617 1.62 1.594 1.597-1.617Zm-1.625-2.396-2.396 2.424 2.43 2.391 2.395-2.424-2.43-2.391Z" clip-rule="evenodd"/>
  <path fill="#FF7E33" d="m16.436 27.227 2.429 2.391-2.396 2.425-2.43-2.391 2.397-2.425Z"/>
  <path fill="#3A0D00" fill-rule="evenodd" d="m18.06 29.624-1.619-1.594-1.597 1.616 1.62 1.594 1.597-1.616Zm-1.624-2.397-2.396 2.425 2.429 2.39 2.396-2.424-2.43-2.39Z" clip-rule="evenodd"/>
  <path fill="#FF7E33" d="m25.595 23.898 1.216 1.197-1.2 1.213-1.215-1.196 1.2-1.214Z"/>
  <path fill="#3A0D00" fill-rule="evenodd" d="m26.007 25.1-.406-.399-.4.405.405.4.4-.405Zm-.412-1.202-1.199 1.214 1.216 1.196 1.199-1.213-1.216-1.197Z" clip-rule="evenodd"/>
</svg>
