<svg xmlns="http://www.w3.org/2000/svg" width="42" height="44" fill="none" viewBox="0 0 42 44">
  <path fill="#EE6610" d="m16.091 8.727 4.5 8.5 4 4 8.5 3 8-9-5.5-8-4.5-3.5-9-2.5-6 7.5Zm-15.5 9.5 4 12 3 4.5 10.5 8 8.5-8-4.5-11.5-3.5-4-11-6-7 5Z"/>
  <path fill="#6B1600" fill-rule="evenodd" d="M21.907.657 31.32 3.27l4.64 3.609 5.765 8.386-8.483 9.544-8.924-3.15-4.134-4.133-4.688-8.856 6.41-8.014Zm.368 1.14-5.588 6.986 4.31 8.143 3.867 3.867 8.077 2.85 7.516-8.456-5.234-7.613-4.36-3.392-8.588-2.385ZM7.555 12.638 18.91 18.83l3.616 4.133L27.18 34.86l-9.055 8.522-10.903-8.307-3.084-4.626L0 18.035l7.555-5.397Zm.072 1.178-6.445 4.603 3.862 11.586 2.917 4.375 10.096 7.692 7.945-7.478-4.345-11.104-3.384-3.867-10.646-5.807Z" clip-rule="evenodd"/>
  <path fill="#EE4211" d="m4.091 37.227-3-4.5c14.753-9.458 21.767-16.47 32-32l4.5 3.5c-10.066 14.831-17.302 22.12-33.5 33Z"/>
  <path fill="#6B1600" fill-rule="evenodd" d="m32.971 0 5.297 4.12-.263.387C27.9 19.394 20.619 26.727 4.37 37.642l-.417.28-3.56-5.341.428-.275C15.512 22.888 22.476 15.926 32.674.452L32.97 0Zm.24 1.453C23.2 16.574 16.17 23.604 1.789 32.873l2.44 3.659C19.943 25.934 27.108 18.724 36.914 4.333l-3.703-2.88Z" clip-rule="evenodd"/>
</svg>
