<svg xmlns="http://www.w3.org/2000/svg" width="38" height="39" fill="none" viewBox="0 0 38 39">
  <path fill="#62A582" d="M3.256 20.183v-9.315L26.048 33.12h-10.31L3.256 20.183Z"/>
  <path fill="#88441F" d="m4.341 34.155-2.713-2.587 6.512-5.693 2.713 2.07-6.512 6.21Z"/>
  <path fill="#7A3F1D" d="m.543 32.603 1.085-1.035 4.884 4.657-2.17 2.07-3.8-3.105v-2.587Z"/>
  <path fill="#71B8B2" d="M14.652.518 3.256 10.868 26.048 33.12l10.854-10.35L14.652.518Z"/>
  <path fill="#C6CBBF" d="M37.444 13.973 32.56 9.315v8.798l4.342 4.657.542-8.797Z"/>
  <path fill="#80C3CC" d="M23.878.518h-9.226L32.56 18.113V9.315L23.877.518Z"/>
  <path fill="#1D4048" fill-rule="evenodd" d="M14.435 0h9.674L38 13.777l-.569 9.22-11.158 10.64H15.5l-4.697-4.84-5.692 5.36 2.169 2.068L4.37 39 0 35.428v-3.04l1.25-1.192 6.376-5.702-4.913-5.11v-9.738L14.435 0ZM8.36 26.257 2.408 31.58l1.936 1.846 5.724-5.392-1.709-1.777ZM1.628 32.3l4.117 3.925-1.432 1.365-3.228-2.638v-2.135l.543-.517ZM14.634 1.249 4.028 10.88l22.025 21.503 10.09-9.622-21.51-21.513Zm21.8 20.303.455-7.384L23.646 1.035H15.92l20.514 20.517ZM24.76 32.602 3.799 12.139v7.843l7.453 7.754.002.002 4.72 4.866h8.786Z" clip-rule="evenodd"/>
  <path fill="#3A0D00" fill-rule="evenodd" d="m10.803 28.796-5.692 5.361 2.169 2.068L4.37 39 0 35.428v-3.04l1.25-1.192 6.376-5.702 3.177 3.302ZM8.36 26.257 2.408 31.58l1.936 1.846 5.724-5.392-1.709-1.777ZM1.628 32.3l4.117 3.925-1.432 1.365-3.228-2.638v-2.135l.543-.517Z" clip-rule="evenodd"/>
  <path fill="#1D4048" fill-rule="evenodd" d="M33.103 9.315v9.315h-1.085V9.315h1.085Z" clip-rule="evenodd"/>
  <path fill="#376342" d="M28.41 26.89a.999.999 0 0 1 0 1.463l-1.375 1.312a1.123 1.123 0 0 1-1.535 0l-1.244-1.186a1.001 1.001 0 0 1 0-1.464l1.376-1.312a1.123 1.123 0 0 1 1.534 0l1.245 1.187Z"/>
  <path fill="#1D4148" fill-rule="evenodd" d="m26.46 29.116 1.375-1.312a.25.25 0 0 0 0-.366l-1.244-1.186a.28.28 0 0 0-.384 0l-1.376 1.312a.25.25 0 0 0 0 .366l1.245 1.186a.28.28 0 0 0 .383 0Zm1.95-.763a1.001 1.001 0 0 0 0-1.463l-1.244-1.187a1.123 1.123 0 0 0-1.534 0l-1.376 1.312a1.001 1.001 0 0 0 0 1.464l1.244 1.186a1.123 1.123 0 0 0 1.535 0l1.376-1.312Z" clip-rule="evenodd"/>
  <path fill="#376342" d="M24.097 22.776a1.002 1.002 0 0 1 0 1.463l-1.376 1.312a1.123 1.123 0 0 1-1.535 0l-1.244-1.186a1.001 1.001 0 0 1 0-1.464l1.375-1.312a1.123 1.123 0 0 1 1.535 0l1.245 1.187Z"/>
  <path fill="#1D4148" fill-rule="evenodd" d="m22.145 25.003 1.376-1.313a.25.25 0 0 0 0-.366l-1.244-1.186a.28.28 0 0 0-.384 0l-1.376 1.312a.25.25 0 0 0 0 .366l1.244 1.187a.28.28 0 0 0 .384 0Zm1.952-.764a1.001 1.001 0 0 0 0-1.463l-1.245-1.187a1.123 1.123 0 0 0-1.535 0L19.942 22.9a1.001 1.001 0 0 0 0 1.464l1.244 1.186a1.123 1.123 0 0 0 1.535 0l1.376-1.312Z" clip-rule="evenodd"/>
  <path fill="#376342" d="M28.06 18.996c.424.404.424 1.06 0 1.464l-1.376 1.312a1.123 1.123 0 0 1-1.535 0l-1.244-1.187a1.001 1.001 0 0 1 0-1.463l1.376-1.313a1.123 1.123 0 0 1 1.535 0l1.244 1.187Z"/>
  <path fill="#1D4148" fill-rule="evenodd" d="m26.108 21.223 1.376-1.312a.25.25 0 0 0 0-.366l-1.244-1.187a.28.28 0 0 0-.384 0l-1.376 1.313a.25.25 0 0 0 0 .365l1.245 1.187a.28.28 0 0 0 .383 0Zm1.952-.763a1.001 1.001 0 0 0 0-1.464l-1.244-1.186a1.123 1.123 0 0 0-1.535 0l-1.376 1.312a1.001 1.001 0 0 0 0 1.463l1.244 1.187a1.123 1.123 0 0 0 1.535 0l1.376-1.312Z" clip-rule="evenodd"/>
  <path fill="#376342" d="M32.374 23.11c.424.404.424 1.06 0 1.464l-1.376 1.312a1.123 1.123 0 0 1-1.535 0l-1.244-1.187a1.001 1.001 0 0 1 0-1.463l1.376-1.313a1.123 1.123 0 0 1 1.535 0l1.244 1.187Z"/>
  <path fill="#1D4148" fill-rule="evenodd" d="m30.422 25.337 1.377-1.312a.25.25 0 0 0 0-.366l-1.245-1.187a.28.28 0 0 0-.383 0l-1.377 1.313a.25.25 0 0 0 0 .365l1.245 1.187a.28.28 0 0 0 .383 0Zm1.952-.763a1.002 1.002 0 0 0 0-1.464l-1.244-1.186a1.123 1.123 0 0 0-1.535 0l-1.376 1.312a1.001 1.001 0 0 0 0 1.463l1.244 1.187a1.123 1.123 0 0 0 1.535 0l1.376-1.312Z" clip-rule="evenodd"/>
</svg>
