<svg xmlns="http://www.w3.org/2000/svg" width="43" height="41" fill="none" viewBox="0 0 43 41">
  <path fill="#FFC125" d="m18.707 4.543 2.586-2.586a1 1 0 0 1 1.414 0l2.586 2.586a1 1 0 0 1 0 1.414l-2.586 2.586a1 1 0 0 1-1.414 0l-2.586-2.586a1 1 0 0 1 0-1.414Z"/>
  <path fill="#DE7100" fill-rule="evenodd" d="M22.354 2.31a.5.5 0 0 0-.708 0l-2.585 2.586a.5.5 0 0 0 0 .708l-.354.353.354-.353 2.585 2.585a.5.5 0 0 0 .707 0l2.586-2.585a.5.5 0 0 0 0-.708l-2.585-2.585Zm-1.415-.706a1.5 1.5 0 0 1 2.122 0l2.585 2.585a1.5 1.5 0 0 1 0 2.122l-2.585 2.585a1.5 1.5 0 0 1-2.122 0l-2.585-2.585a1.5 1.5 0 0 1 0-2.122l2.585-2.585Z" clip-rule="evenodd"/>
  <path fill="#FCB203" d="m11.5 17.75 14-16.5.5-.5h8.5l7 6-1 9.5-16 14-18 4.5 5-17Z"/>
  <path fill="#FFC125" d="m22.207 15.043 2.586-2.586a1 1 0 0 1 1.414 0l2.586 2.586a1 1 0 0 1 0 1.414l-2.586 2.586a1 1 0 0 1-1.414 0l-2.586-2.586a1 1 0 0 1 0-1.414Z"/>
  <path fill="#DE7100" fill-rule="evenodd" d="M25.854 12.81a.5.5 0 0 0-.708 0l-2.585 2.586a.5.5 0 0 0 0 .708l-.354.353.354-.353 2.585 2.585a.5.5 0 0 0 .707 0l2.586-2.585a.5.5 0 0 0 0-.708l-2.585-2.585Zm-1.415-.706a1.5 1.5 0 0 1 2.122 0l2.585 2.585a1.5 1.5 0 0 1 0 2.122l-2.585 2.585a1.5 1.5 0 0 1-2.122 0l-2.585-2.585a1.5 1.5 0 0 1 0-2.122l2.585-2.585Z" clip-rule="evenodd"/>
  <path fill="#DE7100" fill-rule="evenodd" d="m25.47.513 15.76 15.761-16.492 14.432-18.964 4.74 5.276-17.939L25.47.513Zm.06 1.474L11.95 17.993l-4.724 16.06 17.036-4.259 15.507-13.568L25.53 1.987Z" clip-rule="evenodd"/>
  <path fill="#FFC125" d="m19.707 31.543 2.586-2.586a1 1 0 0 1 1.414 0l2.586 2.586a1 1 0 0 1 0 1.414l-2.586 2.586a1 1 0 0 1-1.414 0l-2.586-2.586a1 1 0 0 1 0-1.414Z"/>
  <path fill="#DE7100" fill-rule="evenodd" d="M23.354 29.31a.5.5 0 0 0-.708 0l-2.585 2.586a.5.5 0 0 0 0 .708l-.354.353.354-.353 2.585 2.585a.5.5 0 0 0 .707 0l2.586-2.585a.5.5 0 0 0 0-.708l-2.585-2.585Zm-1.415-.706a1.5 1.5 0 0 1 2.122 0l2.585 2.585a1.5 1.5 0 0 1 0 2.122l-2.585 2.585a1.5 1.5 0 0 1-2.122 0l-2.585-2.585a1.5 1.5 0 0 1 0-2.122l2.585-2.585Z" clip-rule="evenodd"/>
  <path fill="#FFC125" d="m33.707 18.543 2.586-2.586a1 1 0 0 1 1.414 0l2.586 2.586a1 1 0 0 1 0 1.414l-2.586 2.586a1 1 0 0 1-1.414 0l-2.586-2.586a1 1 0 0 1 0-1.414Z"/>
  <path fill="#DE7100" fill-rule="evenodd" d="M37.353 16.31a.5.5 0 0 0-.707 0l-2.585 2.586a.5.5 0 0 0 0 .708l-.354.353.354-.353 2.585 2.585a.5.5 0 0 0 .707 0l2.586-2.585a.5.5 0 0 0 0-.708l-2.586-2.585Zm-1.414-.706a1.5 1.5 0 0 1 2.122 0l2.585 2.585a1.5 1.5 0 0 1 0 2.122l-2.585 2.585a1.5 1.5 0 0 1-2.122 0l-2.586-2.585a1.5 1.5 0 0 1 0-2.122l2.586-2.585Z" clip-rule="evenodd"/>
  <path fill="#FFC125" d="m10.707 22.543 2.586-2.586a1 1 0 0 1 1.414 0l2.586 2.586a1 1 0 0 1 0 1.414l-2.586 2.586a1 1 0 0 1-1.414 0l-2.586-2.586a1 1 0 0 1 0-1.414Z"/>
  <path fill="#DE7100" fill-rule="evenodd" d="M14.354 20.31a.5.5 0 0 0-.708 0l-2.585 2.586a.5.5 0 0 0 0 .708l-.354.353.354-.353 2.585 2.585a.5.5 0 0 0 .707 0l2.586-2.585a.5.5 0 0 0 0-.708l-2.585-2.585Zm-1.415-.706a1.5 1.5 0 0 1 2.122 0l2.585 2.585a1.5 1.5 0 0 1 0 2.122l-2.585 2.585a1.5 1.5 0 0 1-2.122 0l-2.585-2.585a1.5 1.5 0 0 1 0-2.122l2.585-2.585ZM34.315 1.25H25.5v-1h9.185l7.338 6.29-1.026 10.26-.995-.1.974-9.74-6.661-5.71Z" clip-rule="evenodd"/>
  <path fill="#899912" d="m12.5 9.75-2.5-2-7 4.5-1.5 22.5 5.5 5.5 22.5-1.5 5-7v-1l-2.5-1.5 4-4-2-2-9 7.5-19 5-.5-.5 5-18 8-9-2-1.5-4 3Z"/>
  <path fill="#4F5400" fill-rule="evenodd" d="M16.547 6.09 18.5 8.043v.886l-7.05 8.56-5.22 17.557 18.53-4.75 7.959-6.965 1.38-.69 2.598 2.599-3.88 4.11L35 30.44v1.47l-5.23 7.322-22.963 1.531-5.821-5.82 1.532-22.979 7.514-4.83 2.478 1.983 4.037-3.028Zm-4.82 3.682L9.969 8.365l-6.486 4.17-1.18 17.693L7.06 13.973l4.668-4.2ZM2.064 34.606 3.6 36.142l1.484-.742 5.467-18.39 6.95-8.44v-.113L16.453 7.41l-3.635 2.727-4.878 4.39-5.877 20.079Zm3.613 1.615-1.332.666 2.8 2.8 20.086-5.879 8.073-8.548-1.402-1.402-.62.31-8.041 7.037L5.676 36.22Zm5.846 3.226 17.709-1.18L34 31.59v-.531l-1.618-.809h-.416l-4.196 4.442-16.248 4.755Z" clip-rule="evenodd"/>
  <path fill="#4F5400" fill-rule="evenodd" d="m10.675 17.63-3.5-3 .65-.76 3.5 3-.65.76ZM27.62 34.575l-3-3.5.76-.65 3 3.5-.76.65Z" clip-rule="evenodd"/>
</svg>
