<svg xmlns="http://www.w3.org/2000/svg" width="49" height="42" fill="none" viewBox="0 0 49 42">
  <path fill="#CFA24B" d="m7.097 19.091-6.5 15 3.5 3 10.5-10.5-7.5-7.5Z"/>
  <path fill="#A57435" d="m4.097 37.091 3 3.5 27.5-18.5-7-7.5-23.5 22.5Z"/>
  <path fill="#799C40" d="m24.097 23.091-13.5-14 9.5-3.5 7.5 9-3.5 8.5Z"/>
  <path fill="#638030" d="m39.597.591-9.5 4 14.5 14.5 3-10.5-8-8Z"/>
  <path fill="#4B5F2A" d="m34.597 22.091-7-8 2.5-9.5 14.5 15-10 2.5Z"/>
  <path fill="#577D2C" d="m7.097 19.091 4-10 13 14-9.5 3.5-7.5-7.5Z"/>
  <path fill="#354F10" d="m44.957 18.744-14-14.5-.36.347-.487.112 4 17.5.975-.223-3.6-15.75 12.752 13.21.72-.695ZM10.607 9.19l.49-.099.367-.34 13 14-.733.68-11.797-12.703 3.154 15.765-.981.196-3.5-17.5Z"/>
  <path fill="#4D3814" fill-rule="evenodd" d="M48.156 8.443 39.713 0l-10.04 4.227-2.322 9.288L20.255 5l-10.04 3.7-3.541 10.686L0 34.238l3.743 3.208 3.264 3.809 27.796-18.7 10.2-2.55 3.153-11.562ZM4.778 37.117l2.41 2.811L33.83 22.004l-6.068-6.502-3.287 7.983-9.603 3.538L4.778 37.117Zm39.414-17.94-9.43 2.358-6.614-7.086 2.374-9.494 8.96-3.772 7.556 7.557-2.846 10.437ZM8 19l2.979-9.516 8.96-3.302 7.081 8.498-3.302 8.018-8.993 3.314L8 19Zm-.404 1.01L1.194 33.945l2.877 2.465 9.82-9.819-6.295-6.58Z" clip-rule="evenodd"/>
</svg>
