<svg xmlns="http://www.w3.org/2000/svg" width="43" height="41" fill="none" viewBox="0 0 43 41">
  <path fill="#9D9324" d="m35.964 5.557 1.352 1.35-4.82 4.81-1.352-1.35 4.82-4.81Z"/>
  <path fill="#320B00" fill-rule="evenodd" d="m35.964 4.298 2.614 2.61-6.081 6.07-2.615-2.61 6.082-6.07Zm0 1.26-4.82 4.81 1.353 1.35 4.82-4.81-1.353-1.35Z" clip-rule="evenodd"/>
  <path fill="#F25B08" d="M1.43 24.953V13.877l27.128 26.461H16.285L1.43 24.953Z"/>
  <path fill="#F16C03" d="M14.994 1.569 1.429 13.877l27.129 26.461L41.476 28.03 14.994 1.57Z"/>
  <path fill="#FF9501" d="m42.122 17.569-5.813-5.539v10.462l5.167 5.538.646-10.461Z"/>
  <path fill="#FA7D05" d="M25.974 1.569h-10.98l21.315 20.923V12.03L25.974 1.57Z"/>
  <path fill="#571300" fill-rule="evenodd" d="M26.249.953H14.735L.783 13.613v11.58l15.22 15.76h12.822L42.106 28.3l.677-10.964L26.25.953Zm-23.9 12.94L14.971 2.438 40.572 28.02l-12.01 11.443-26.215-25.57ZM41.46 17.8l-.543 8.78-3.963-3.96v-9.284L41.46 17.8Zm-5.798-5.744-9.964-9.873h-9.197l19.16 19.146v-9.273Zm-33.588 3.33 24.949 24.336H16.568L2.075 24.714v-9.327Z" clip-rule="evenodd"/>
  <path fill="#682707" d="m21.615 18.782 4.19-4.14 2.116 2.07-.993 7.372-5.313-5.302Z"/>
  <path fill="#320B00" fill-rule="evenodd" d="m21.615 18.782 5.313 5.302.993-7.372-2.116-2.07-4.19 4.14Zm1.265.003 3.404 3.397.693-5.146-1.169-1.143-2.928 2.892Z" clip-rule="evenodd"/>
  <path fill="#682707" d="m34.813 31.74 4.147-4.182-2.073-2.113-7.387.992 5.313 5.303Z"/>
  <path fill="#320B00" fill-rule="evenodd" d="M34.813 31.74 29.5 26.437l7.387-.992 2.073 2.113-4.147 4.182Zm-.003-1.263-3.404-3.397 5.156-.692 1.146 1.167-2.898 2.922Z" clip-rule="evenodd"/>
  <path fill="#682707" d="m15.351 24.774 4.536-4.354 1.857 1.767v2.587h2.117l5.14 4.484-.69 2.113h2.634l2.203 1.94-4.622 4.354-5.14-5.087v-2.415l-2.592.345-5.443-5.734Z"/>
  <path fill="#320B00" fill-rule="evenodd" d="m29.001 29.258-5.14-4.484h-2.117v-2.587l-1.857-1.767-4.536 4.354 5.443 5.734 2.592-.345v2.415l5.14 5.087 4.622-4.354-2.203-1.94H28.31l.691-2.113Zm1.607 3.003H28.31a.893.893 0 0 1-.848-1.167l.508-1.553-4.444-3.876h-1.782a.892.892 0 0 1-.892-.89v-2.206l-.962-.916-3.282 3.15 4.52 4.762 2.14-.284a.893.893 0 0 1 1.01.883v2.043l4.263 4.219 3.284-3.093-1.217-1.072Z" clip-rule="evenodd"/>
</svg>
