<svg xmlns="http://www.w3.org/2000/svg" width="45" height="44" fill="none" viewBox="0 0 45 44">
  <path fill="#ECA237" d="m8.038 41.63 6.444-6.144.996.531.731 3.753-3.886 3.255-4.285-1.395Z"/>
  <path fill="#F1B64E" d="m8.935 30.935 1.893-2.49h.2l4.75 4.35-2.226 1.893.897.897-6.71 6.045-1.594-4.484-3.986-1.262 6.377-6.643.399 1.694Z"/>
  <path fill="#F7C564" d="M4.385 27.813.53 31.433l1.396 4.484 6.709-6.942-4.251-1.162Z"/>
  <path fill="#634D1C" d="m19.903 36.082 11.185-10.957 12.267.227-11.67 11.271-11.782-.54Z"/>
  <path fill="#7A6621" d="M30.974 25.01 19.106 13.314 7.664 24.754l12.068 11.5L30.974 25.01Z"/>
  <path fill="#977E23" d="m18.916 13.512.348-12.094L7.586 12.516v11.956l11.33-10.96Z"/>
  <path fill="#453003" fill-rule="evenodd" d="m4.362 27.031 4.007 1.12.742.668.135.634 1.426-1.755.776.63-2.742 3.375-.344-1.607-5.684 5.795 3.845.714 1.467 4.301 5.84-5.501-.903-.833 2.723-2.343.652.758L14.43 34.6l.251.232 1.207.784.576 2.705.301 1.207-.364 1.019-2.752 2.303-.954.573H11.62l-4.32-1.44-1.535-4.5L2.2 36.82.95 35.9l-.863-3.226V30.78l4.275-3.748Zm10.29 8.973L8.87 41.451l2.912.97h.635l.65-.389 2.483-2.078.17-.478-.232-.93-.493-2.318-.345-.224Zm-12.809-.69 6.09-6.21-.06-.053-3.26-.911-3.526 3.092v1.31l.74 2.76.016.013Z" clip-rule="evenodd"/>
  <path fill="#F46E17" d="m18.991 13.093.5-12h12.5l12 11-.5 13h-12.5l-12-12Z"/>
  <path fill="#453003" fill-rule="evenodd" d="M19.012.593h13.174L44.5 11.88l-.527 13.712H30.784L18.483 13.29 19.012.593Zm.96 1L19.5 12.895l11.7 11.698h11.81l.473-12.288L31.797 1.593H19.971Z" clip-rule="evenodd"/>
  <path fill="#E54E15" d="m24.858 13.322.202-7.275h6.727l6.755 6.611-.173 6.756-6.871.26-6.64-6.352Z"/>
  <path fill="#C63403" fill-rule="evenodd" d="M24.573 5.547h7.418l7.056 6.906-.19 7.443-7.552.285-6.953-6.65.221-7.984Zm.973 1-.182 6.567 6.326 6.052 6.191-.234.156-6.069-6.454-6.316h-6.037Z" clip-rule="evenodd"/>
  <path fill="#453003" fill-rule="evenodd" d="M7.95 12.649 19.704 1.317l-.694-.72L6.95 12.224v12.621l12.425 11.987 12.632.238L43.97 25.594l-.693-.722-11.663 11.19-10.833-.203L31.34 25.481l-.701-.713-11.06 10.87L8.168 24.63 19.47 13.583l-.7-.715L7.95 23.445V12.649Z" clip-rule="evenodd"/>
  <path fill="#897725" d="m17.11 28.5 1.345-1.424a1 1 0 0 1 1.43-.024l1.438 1.424a1 1 0 0 1 .006 1.415l-1.437 1.45a1 1 0 0 1-1.443-.024l-1.345-1.45a1 1 0 0 1 .006-1.367Z"/>
  <path fill="#554208" fill-rule="evenodd" d="M19.534 27.407a.5.5 0 0 0-.716.012l-1.344 1.424a.5.5 0 0 0-.003.683l1.345 1.45a.5.5 0 0 0 .721.013l1.437-1.45a.5.5 0 0 0-.003-.708l-1.437-1.424Zm-1.443-.674a1.5 1.5 0 0 1 2.147-.036l1.437 1.424a1.5 1.5 0 0 1 .01 2.121l-1.437 1.45a1.5 1.5 0 0 1-2.166-.035l-1.345-1.45a1.5 1.5 0 0 1 .01-2.05l1.344-1.424Z" clip-rule="evenodd"/>
  <path fill="#846F30" d="m19.413 17.807.36-.342a1 1 0 0 1 1.393.015l1.496 1.483a1 1 0 0 1 .026 1.394l-.327.35a1 1 0 0 1-1.428.033l-1.53-1.49a1 1 0 0 1 .01-1.443Z"/>
  <path fill="#554208" fill-rule="evenodd" d="M20.814 17.835a.5.5 0 0 0-.696-.007l-.361.342a.5.5 0 0 0-.005.721l1.53 1.49a.5.5 0 0 0 .714-.016l.327-.35a.5.5 0 0 0-.013-.697l-1.496-1.483Zm-1.384-.733a1.5 1.5 0 0 1 2.087.023l1.497 1.483a1.5 1.5 0 0 1 .04 2.09l-.328.35a1.5 1.5 0 0 1-2.141.05l-1.53-1.49.348-.359-.349.359a1.5 1.5 0 0 1 .015-2.164l.36-.342Z" clip-rule="evenodd"/>
  <path fill="#B1924F" d="M17.87 12.359v-1.086c0-.86-1.013-1.319-1.66-.752l-.77.676a1 1 0 0 0-.322.95l.196.972a1 1 0 0 0 1.68.518l.575-.563a1 1 0 0 0 .3-.715Z"/>
  <path fill="#554208" fill-rule="evenodd" d="M15.88 10.145c.97-.85 2.49-.162 2.49 1.128v1.086a1.5 1.5 0 0 1-.451 1.072l-.576.563c-.85.832-2.285.39-2.52-.777l-.195-.972a1.5 1.5 0 0 1 .482-1.424l.77-.676Zm1.49 1.128a.5.5 0 0 0-.83-.376l-.77.676a.5.5 0 0 0-.161.475l.195.972a.5.5 0 0 0 .84.259l.575-.563a.5.5 0 0 0 .15-.357v-1.086Z" clip-rule="evenodd"/>
  <path fill="#AA9046" d="M13.883 11.282v-.73c0-.867-1.028-1.324-1.671-.742l-.989.893a1 1 0 0 0-.328.789l.03.62a1 1 0 0 0 1.63.727l.96-.782a1 1 0 0 0 .367-.775Z"/>
  <path fill="#554208" fill-rule="evenodd" d="M11.96 9.532c.884-.8 2.297-.172 2.297 1.02v.73c0 .413-.185.804-.505 1.065l-.96.783c-.875.713-2.19.127-2.242-1.001l-.03-.62c-.019-.41.147-.808.452-1.084l.988-.893Zm1.547 1.02a.625.625 0 0 0-1.044-.464l-.988.894a.625.625 0 0 0-.205.493l.029.619a.625.625 0 0 0 1.02.455l.958-.783a.625.625 0 0 0 .23-.484v-.73Z" clip-rule="evenodd"/>
  <path fill="#3C3018" d="M28.824 32.633h-.838a1 1 0 0 0-.723.309l-.788.823c-.608.636-.157 1.692.723 1.692h.869a1 1 0 0 0 .736-.324l.757-.823c.59-.641.135-1.677-.736-1.677Z"/>
  <path fill="#2D2000" fill-rule="evenodd" d="M26.992 32.682c.26-.27.619-.424.994-.424h.838c1.197 0 1.822 1.424 1.012 2.305l-.757.824c-.26.283-.628.445-1.012.445h-.869c-1.21 0-1.83-1.451-.994-2.326l.788-.824Zm.994.326c-.17 0-.334.07-.452.193l-.788.824a.625.625 0 0 0 .452 1.057h.869a.625.625 0 0 0 .46-.202l.757-.824a.625.625 0 0 0-.46-1.048h-.838Z" clip-rule="evenodd"/>
  <path fill="#3A3015" d="m34.758 31.081-1.002-.04a1 1 0 0 1-.74-1.624l.212-.265a1 1 0 0 1 .78-.376h1.056c.859 0 1.318 1.01.754 1.658l-.266.305a1 1 0 0 1-.794.342Z"/>
  <path fill="#2D2000" fill-rule="evenodd" d="M32.935 28.918a1.374 1.374 0 0 1 1.074-.517h1.055c1.18 0 1.812 1.39 1.037 2.28l-.267.305a1.375 1.375 0 0 1-1.091.47l-1.002-.04c-1.126-.046-1.722-1.353-1.018-2.233l.212-.265Zm1.074.233c-.19 0-.37.087-.488.235l-.212.265c-.32.4-.05.995.463 1.015l1 .04a.625.625 0 0 0 .497-.213l.266-.306a.625.625 0 0 0-.47-1.036h-1.056Z" clip-rule="evenodd"/>
  <path fill="#B0300D" d="M29.091 12.965V10.46h2.254l2.547 2.505v2.295h-2.213l-2.588-2.295Z"/>
  <path fill="#8A1800" fill-rule="evenodd" d="M28.591 9.96h2.96l2.84 2.795v3.005H31.49l-2.899-2.57V9.96Zm1 1v1.78l2.278 2.02h1.523v-1.586L31.14 10.96h-1.55Z" clip-rule="evenodd"/>
</svg>
