<svg xmlns="http://www.w3.org/2000/svg" width="43" height="43" fill="none" viewBox="0 0 43 43">
  <path fill="#F9D090" d="M42.673 20.066 24.011 1.856h9.579l9.083 8.774v9.436Z"/>
  <path fill="#F0BE77" d="M42.508 20.066 23.35 1.691l-1.321 1.82 3.798 3.974-2.477 6.787h-1.321l11.89 11.754 8.589-5.96Z"/>
  <path fill="#F6C279" d="m9.642 20.728 5.285-7.284 2.147 2.152h1.321l12.222 12.582-3.799 2.98-3.303-3.973-5.12 1.82-8.753-8.277Z"/>
  <path fill="#F5C680" d="m16.924 33.648-9.827-9.653-6.394 8.308 10.656 9.969 7.815-5.38-2.25-3.244Z"/>
  <path fill="#EFA24A" d="m6.988 23.814 2.558-3.182 8.97 8.373-1.912 3.985-9.616-9.176Z"/>
  <path fill="#D58230" fill-rule="evenodd" d="m18.001 29.486-8.975-8.503.812-.86 8.975 8.503-.812.86Zm-1.848 3.879-9.466-9.12.818-.853 9.467 9.12-.819.853Z" clip-rule="evenodd"/>
  <path fill="#EE9C48" d="m22.352 14.239-3.997 1.216 12.884 12.664 3.14-2.36-12.027-11.52Z"/>
  <path fill="#C36B21" fill-rule="evenodd" d="M33.523 25.96 21.687 14.634l.816-.856L34.34 25.103l-.816.857Zm-2.947 2.707L17.866 15.92l.836-.837 12.71 12.748-.836.837Z" clip-rule="evenodd"/>
  <path fill="#F4B25B" d="m6.754 16.974 4.78-2.812 1.593 1.476L6.754 23.5l-1.298-1.285 1.298-5.242Z"/>
  <path fill="#D5893D" fill-rule="evenodd" d="m11.567 13.374 1.85 1.408-.716.943-1.224-.933-4.354 2.51-1.04 4.61 1.5 1.557-.85.822-1.943-2.017 1.295-5.74 5.482-3.16Z" clip-rule="evenodd"/>
  <path fill="#D07A31" fill-rule="evenodd" d="M23.077.953h10.595L43 10.234v10.091L11.395 42.953 0 32.322 23.077.953Zm1.757 1.185 16.985 16.485v-7.896l-8.634-8.59h-8.351Zm16.655 17.814L23.45 2.442 1.576 32.174l9.918 9.254 29.995-21.476Z" clip-rule="evenodd"/>
  <path fill="#F7CE8E" d="m12.567 10.632 2.106-6.318L20.68 2.5l5.103 5.052-2.705 6.347-5.84 1.725-4.672-4.99Z"/>
  <path fill="#D5893D" fill-rule="evenodd" d="m20.847 1.83 5.638 5.584-2.972 6.973-6.456 1.907-5.162-5.514 2.314-6.944 6.638-2.006Zm-5.71 2.963-1.898 5.692 4.182 4.468 5.224-1.544 2.438-5.72-4.567-4.522-5.38 1.626Z" clip-rule="evenodd"/>
  <path fill="#F6DEA1" d="m16.378 33.308 2.275-4.745 4.918-1.602 4.057 5.176-1.845 4.806-5.225 1.54-4.18-5.175Z"/>
  <path fill="#D5893D" fill-rule="evenodd" d="m23.78 26.27 4.52 5.766-2.07 5.393-5.883 1.734-4.663-5.774 2.546-5.31 5.55-1.809Zm-4.704 2.778-2.003 4.179 3.697 4.577 4.567-1.346 1.619-4.22-3.595-4.586-4.285 1.396Z" clip-rule="evenodd"/>
</svg>
