<svg xmlns="http://www.w3.org/2000/svg" width="42" height="41" fill="none" viewBox="0 0 42 41">
  <path fill="#27AC51" fill-rule="evenodd" d="m16.878 8.653-1.649 2.204h15.39l-1.648-2.204 3.298-2.204L29.52 2.04l-3.299 1.102L22.925.388l-2.749 3.306-3.847-1.653-2.749 4.408 3.298 2.204ZM24.574 7l1.099-1.102L26.773 7l-1.1 1.102L24.573 7Zm-2.749 0-1.099-1.102L19.626 7l1.1 1.102L21.826 7Z" clip-rule="evenodd"/>
  <path fill="#124217" fill-rule="evenodd" d="m22.89 0 3.39 2.833 3.359-1.122 3.004 4.819-3.278 2.19 1.804 2.412H14.68l1.805-2.411-3.278-2.191 3.015-4.835 3.875 1.665L22.89 0Zm.07.776-2.704 3.252-3.82-1.64-2.481 3.98 3.318 2.217-1.494 1.996H30.07l-1.493-1.996 3.317-2.217-2.492-3.997-3.238 1.082L22.96.776Zm-2.234 4.732L22.214 7l-1.488 1.492L19.238 7l1.488-1.492Zm4.947 0L27.16 7l-1.488 1.492L24.185 7l1.488-1.492ZM20.015 7l.711.712.71-.712-.71-.712-.71.712Zm4.947 0 .71.712.712-.712-.711-.712-.71.712Z" clip-rule="evenodd"/>
  <path fill="#124217" fill-rule="evenodd" d="m20.94 4.385-.887-.445.246-.492 1.313.657-.625 1.88-.522-.174.474-1.426Zm5.088-1.437.389.39-.98.981.497 1.492-.522.174-.603-1.814 1.22-1.223Z" clip-rule="evenodd"/>
  <path fill="#27AC51" fill-rule="evenodd" d="m33.368 12.51-2.199-1.653v15.428l2.2-1.653 2.198 3.306 4.397-2.755-1.1-3.306 2.749-3.306-3.298-2.755 1.649-3.857-4.397-2.755-2.199 3.306Zm1.649 7.714 1.1 1.102-1.1 1.102-1.1-1.102 1.1-1.102Zm0-2.755 1.1-1.102-1.1-1.102-1.1 1.102 1.1 1.102Z" clip-rule="evenodd"/>
  <path fill="#124217" fill-rule="evenodd" d="m42 18.535-2.826 3.4 1.12 3.366-4.808 3.012-2.185-3.286-2.406 1.809v-16.53l2.406 1.809 2.185-3.287 4.823 3.022-1.66 3.886 3.351 2.8Zm-.774.071-3.244-2.71 1.637-3.829-3.972-2.488-2.211 3.326-1.992-1.497v14.326l1.992-1.498 2.211 3.326 3.988-2.498-1.08-3.246 2.67-3.212Zm-4.721-2.24-1.488 1.492-1.488-1.491 1.488-1.492 1.488 1.492Zm0 4.96-1.488 1.491-1.488-1.491 1.488-1.492 1.488 1.492Zm-1.488-5.672-.71.713.71.712.71-.712-.71-.713Zm0 4.96-.71.712.71.712.71-.712-.71-.713Z" clip-rule="evenodd"/>
  <path fill="#124217" fill-rule="evenodd" d="m37.626 16.58.443-.887.492.246-.657 1.316-1.875-.627.174-.523 1.423.476Zm1.433 5.102-.389.39-.979-.982-1.488.497-.174-.523 1.81-.605 1.22 1.223Z" clip-rule="evenodd"/>
  <path fill="#27AC51" fill-rule="evenodd" d="m28.97 29.04 1.65-2.204H15.23l1.648 2.204-3.298 2.204 2.749 4.407 3.298-1.102 3.298 2.755 2.748-3.306 3.848 1.654 2.748-4.409-3.298-2.203Zm-7.694 1.652-1.1 1.102-1.099-1.102 1.1-1.102 1.099 1.102Zm2.748 0 1.1 1.102 1.099-1.102-1.1-1.102-1.1 1.102Z" clip-rule="evenodd"/>
  <path fill="#124217" fill-rule="evenodd" d="m22.96 37.692-3.392-2.833-3.358 1.122-3.004-4.818 3.278-2.191-1.804-2.412h16.49l-1.805 2.412 3.278 2.19-3.014 4.836-3.876-1.665-2.793 3.36Zm-.07-.776 2.703-3.252 3.82 1.641 2.481-3.98-3.317-2.218 1.493-1.996H15.78l1.493 1.996-3.318 2.217 2.492 3.997 3.238-1.081 3.204 2.676Zm2.233-4.732-1.488-1.491 1.488-1.492 1.488 1.491-1.488 1.492Zm-4.947 0-1.488-1.491 1.488-1.492 1.488 1.491-1.488 1.492Zm5.658-1.491-.71-.713-.711.712.71.713.71-.713Zm-4.947 0-.71-.713-.711.712.71.713.711-.713Z" clip-rule="evenodd"/>
  <path fill="#124217" fill-rule="evenodd" d="m24.91 33.308.886.444-.246.493-1.313-.658.626-1.88.52.175-.473 1.426Zm-5.089 1.436-.389-.39.98-.98-.496-1.492.521-.175.603 1.815-1.219 1.222Z" clip-rule="evenodd"/>
  <path fill="#27AC51" fill-rule="evenodd" d="m11.931 24.632 2.2 1.653V10.857l-2.2 1.653-2.198-3.306-4.397 2.755 1.099 3.306-2.748 3.306 3.298 2.755-1.65 3.857 4.398 2.755 2.198-3.306Zm-1.648-7.714-1.1-1.102 1.1-1.102 1.099 1.102-1.1 1.102Zm0 2.755-1.1 1.102 1.1 1.102 1.099-1.102-1.1-1.102Z" clip-rule="evenodd"/>
  <path fill="#124217" fill-rule="evenodd" d="m3.3 18.606 2.826-3.4-1.12-3.366 4.807-3.012L12 12.115l2.406-1.81v16.53L12 25.027l-2.186 3.286-4.823-3.022 1.661-3.885-3.351-2.8Zm.774-.07 3.244 2.71-1.637 3.828 3.971 2.488 2.212-3.326 1.991 1.498V11.408l-1.991 1.497-2.212-3.326-3.987 2.498 1.079 3.246-2.67 3.212Zm4.72 2.239 1.489-1.492 1.488 1.492-1.489 1.491-1.488-1.491Zm0-4.96 1.489-1.49 1.488 1.49-1.489 1.492-1.488-1.491Zm1.489 5.672.71-.712-.71-.713-.711.713.71.712Zm0-4.959.71-.712-.71-.713-.711.713.71.712Z" clip-rule="evenodd"/>
  <path fill="#124217" fill-rule="evenodd" d="m7.673 20.56-.443.889-.491-.247.656-1.315 1.875.626-.174.523-1.423-.475Zm-1.433-5.1.39-.39.978.982 1.488-.498.174.523-1.81.605-1.22-1.222Z" clip-rule="evenodd"/>
  <path fill="#45E2AD" d="m9.183 5.898-.105 5.51h5.052v14.877H9.183v6.06h6.046v-4.407h15.94v4.408h5.497v-6.061h-4.947V11.408h4.947v-5.51H31.17v3.857H14.68V5.898H9.183Z"/>
  <path fill="#124217" fill-rule="evenodd" d="M8.914 5.622h6.04V9.48h15.94V5.622h6.047v6.061h-4.947V26.01h4.947v6.612h-6.046v-4.408h-15.39v4.408H8.907V26.01h4.947V11.683H8.798l.116-6.06Zm.539.551-.095 4.96h5.047V26.56H9.458v5.51h5.497v-4.408h16.49v4.408h4.946v-5.51h-4.947V11.132h4.947V6.173h-4.947v3.857h-17.04V6.173h-4.95Z" clip-rule="evenodd"/>
  <path fill="#19632B" fill-rule="evenodd" d="m25.178 13.667-2.253-2.26-2.254 2.26h-3.188v3.195l-2.254 2.26 2.254 2.259v3.195h3.188l2.254 2.26 2.253-2.26h3.188v-3.195l2.254-2.26-2.254-2.259v-3.195h-3.188Z" clip-rule="evenodd"/>
  <path fill="#0B5518" fill-rule="evenodd" d="m25.178 13.667-2.253-2.26-2.254 2.26h-3.188v3.195l-2.254 2.26 2.254 2.259v3.195h3.188l2.254 2.26 2.253-2.26h3.188v-3.195l2.254-2.26-2.254-2.259v-3.195h-3.188Zm2.363.827h-2.704l-1.912-1.917-1.913 1.917h-2.704v2.71l-1.913 1.918 1.913 1.917v2.71h2.704l1.913 1.918 1.912-1.917h2.704v-2.711l1.913-1.917-1.913-1.917v-2.711Z" clip-rule="evenodd"/>
  <path fill="#F5E40E" d="M20.176 16.367h5.497v5.51h-5.497v-5.51Z"/>
  <path fill="#0B5518" fill-rule="evenodd" d="M24.848 17.193h-3.847v3.857h3.847v-3.857Zm-4.672-.826v5.51h5.497v-5.51h-5.497Z" clip-rule="evenodd"/>
  <path fill="#EBAE05" d="M7.534 30.142.39 37.303l3.298 3.306 7.145-7.163-3.298-3.306Z"/>
  <path fill="#4D3814" fill-rule="evenodd" d="m7.534 29.752 3.687 3.695L3.687 41 0 37.304l7.534-7.552ZM.777 37.304l2.91 2.917 6.757-6.773-2.91-2.917-6.757 6.773Z" clip-rule="evenodd"/>
  <path fill="#EBAE05" d="m.938 30.692 3.848 2.205.55-6.061L.938 23.53v7.162Z"/>
  <path fill="#4D3814" fill-rule="evenodd" d="m.663 23.53.44-.22L5.5 26.614l.11.245-.55 6.061-.41.215-3.848-2.204-.139-.24V23.53Zm.55.55v6.453l3.338 1.912.497-5.481-3.835-2.883Z" clip-rule="evenodd"/>
  <path fill="#EBAE05" d="m14.68 35.651-6.596.551 2.748 3.306h7.695l-3.847-3.857Z"/>
  <path fill="#4D3814" fill-rule="evenodd" d="m8.633 36.433 2.328 2.8h6.903l-3.288-3.296-5.943.496Zm-.572-.505 6.596-.551.217.08 3.848 3.857-.195.47h-7.695l-.211-.1-2.748-3.305.188-.451Z" clip-rule="evenodd"/>
</svg>
