<svg xmlns="http://www.w3.org/2000/svg" width="44" height="43" fill="none" viewBox="0 0 44 43">
  <path fill="#F9CD08" d="m2 31.5-1-9 11-15h10l14.5 14-.5 10L20.5 42l-9-1L2 31.5Z"/>
  <path fill="#FED60D" d="m36.5 21.5-.5 10-4.5-4.5L12 7.5h10l9.5 9.172 5 4.828Z"/>
  <path fill="#FED60D" d="m36.5 21.5-.5 10-4.5-4.5V16.672l5 4.828Z"/>
  <path fill="#F0A613" d="m2 31.5-1-9L20.5 42l-9-1L2 31.5Z"/>
  <path fill="#6B3300" fill-rule="evenodd" d="m35.646 31.854-24-24 .707-.708 24 24-.707.708Zm-15.5 10.5-19.5-19.5.708-.707 19.5 19.5-.708.707Z" clip-rule="evenodd"/>
  <path fill="#F0A613" d="M22.328 22.207a1 1 0 0 1 1.415 0l2.12 2.121a1 1 0 0 1 0 1.415l-2.12 2.121a1 1 0 0 1-1.415 0l-2.12-2.121a1 1 0 0 1 0-1.415l2.12-2.12Z"/>
  <path fill="#6B3300" fill-rule="evenodd" d="M22.028 21.906a1.375 1.375 0 0 1 1.944 0l2.122 2.122a1.375 1.375 0 0 1 0 1.944l-2.122 2.122a1.375 1.375 0 0 1-1.944 0l-2.122-2.122a1.375 1.375 0 0 1 0-1.944l2.122-2.122Zm1.414.53a.625.625 0 0 0-.884 0l-2.121 2.122a.625.625 0 0 0 0 .884l2.121 2.121c.244.244.64.244.884 0l2.121-2.121a.625.625 0 0 0 0-.884l-2.121-2.121Z" clip-rule="evenodd"/>
  <path fill="#F0A613" d="M11.328 17.207a1 1 0 0 1 1.415 0l2.12 2.121a1 1 0 0 1 0 1.415l-2.12 2.121a1 1 0 0 1-1.415 0l-2.12-2.121a1 1 0 0 1 0-1.415l2.12-2.12Z"/>
  <path fill="#6B3300" fill-rule="evenodd" d="M11.028 16.906a1.375 1.375 0 0 1 1.944 0l2.122 2.122a1.375 1.375 0 0 1 0 1.944l-2.122 2.122a1.375 1.375 0 0 1-1.944 0l-2.122-2.122a1.375 1.375 0 0 1 0-1.944l2.122-2.122Zm1.414.53a.625.625 0 0 0-.884 0l-2.121 2.122a.625.625 0 0 0 0 .884l2.121 2.121c.244.244.64.244.884 0l2.121-2.121a.625.625 0 0 0 0-.884l-2.121-2.121Z" clip-rule="evenodd"/>
  <path fill="#F0A613" d="M20.328 32.207a1 1 0 0 1 1.415 0l2.12 2.121a1 1 0 0 1 0 1.415l-2.12 2.121a1 1 0 0 1-1.415 0l-2.12-2.121a1 1 0 0 1 0-1.415l2.12-2.12Z"/>
  <path fill="#6B3300" fill-rule="evenodd" d="M31.5 16.5a.5.5 0 0 1 .5.5v10a.5.5 0 0 1-1 0V17a.5.5 0 0 1 .5-.5ZM20.028 31.906a1.375 1.375 0 0 1 1.944 0l2.122 2.122a1.375 1.375 0 0 1 0 1.944l-2.122 2.122a1.375 1.375 0 0 1-1.944 0l-2.122-2.122a1.375 1.375 0 0 1 0-1.944l2.122-2.122Zm1.414.53a.625.625 0 0 0-.884 0l-2.121 2.122a.625.625 0 0 0 0 .884l2.121 2.121c.244.244.64.244.884 0l2.121-2.121a.625.625 0 0 0 0-.884l-2.121-2.121Z" clip-rule="evenodd"/>
  <path fill="#9C8214" d="m29.5 1-4 9.5 8 7.5 9.5-3.5L29.5 1Z"/>
  <path fill="#422400" fill-rule="evenodd" d="M29.328.12 43.906 14.7l-10.702 3.943-.346-.938 9.236-3.403L29.672 1.879l-3.905 9.276-.922-.388L29.328.12Z" clip-rule="evenodd"/>
  <path fill="#826311" d="M36.5 3.5 28 13l2.5 2.5 10-8-4-4Z"/>
  <path fill="#422400" fill-rule="evenodd" d="m36.48 2.773 4.759 4.759-10.3 8.672-.643-.764 9.465-7.972-3.24-3.24-8.482 9.478-.745-.667L36.48 2.773Z" clip-rule="evenodd"/>
  <path fill="#6B3300" fill-rule="evenodd" d="M11.747 7h10.455l14.809 14.298-.524 10.476-15.86 10.743-9.357-1.04-9.748-9.747-1.04-9.369L11.747 7Zm.506 1L1.518 22.639l.96 8.631 9.252 9.252 8.642.96 15.141-10.256.476-9.524L21.798 8h-9.545Z" clip-rule="evenodd"/>
</svg>
