<svg xmlns="http://www.w3.org/2000/svg" width="42" height="42" fill="none" viewBox="0 0 42 42">
  <path fill="#F6CED6" d="M17.24.887 14.9 5.691h8.02L21.04.887h-3.8Z"/>
  <path fill="#760A11" fill-rule="evenodd" d="M17.005.512h4.292l1.973 5.043-.699.273-1.786-4.566h-3.311l-2.237 4.594-.674-.329L17.005.512Z" clip-rule="evenodd"/>
  <path fill="#F6CED6" d="m34.826 7.154-3.676.793 6.224 5.64.543-3.635-3.091-2.798Z"/>
  <path fill="#760A11" fill-rule="evenodd" d="m34.935 6.746 3.383 3.063-.573 3.833-.742-.11.514-3.437-2.8-2.534-3.488.753-.158-.733 3.864-.835Z" clip-rule="evenodd"/>
  <path fill="#F6CED6" d="m40.632 22.693-3.717-2.172v7.895l3.717-1.67v-4.053Z"/>
  <path fill="#760A11" fill-rule="evenodd" d="m40.257 22.909-3.532-2.064.379-.648 3.903 2.281v4.51l-3.939 1.77-.307-.684 3.496-1.571v-3.595Z" clip-rule="evenodd"/>
  <path fill="#FFD0DC" d="m.635 36.39 5 5 8.5-2.5 6-9.75-7-6.676-10 5.926-2.5 8Z"/>
  <path fill="#F03093" d="M38.135 13.39v17.5l-27.5-26h18.5l9 8.5Z"/>
  <path fill="#F89496" d="M14.16 38.579 3.534 28.21l3.47-2.039 9.327 9.11-2.17 3.297Z"/>
  <path fill="#D7634A" fill-rule="evenodd" d="M3.791 27.915 14.46 38.33l-.524.537L3.267 28.452l.524-.537Zm12.341 7.705-9.383-9.197.525-.536 9.383 9.197-.525.535Z" clip-rule="evenodd"/>
  <path fill="#F89496" d="m22.135 25.89-5.5-5.5-3.5 2.074 7 6.676 2-3.25Z"/>
  <path fill="#D7634A" fill-rule="evenodd" d="m13.394 22.193 7 6.676-.518.542-7-6.676.518-.542Z" clip-rule="evenodd"/>
  <path fill="#561B0E" fill-rule="evenodd" d="M17.065 20.135a.5.5 0 0 1-.175.685L3.555 28.722 1.203 36.25l4.576 4.577 8.03-2.362 7.9-12.837a.5.5 0 0 1 .852.524l-8.1 13.163-8.97 2.639L.068 36.53l2.647-8.472L16.38 19.96a.5.5 0 0 1 .685.175Z" clip-rule="evenodd"/>
  <path fill="#F6CED6" d="M28.634 10.684a2.736 2.736 0 1 1-5.471 0 2.736 2.736 0 0 1 5.471 0Z"/>
  <path fill="#760A16" fill-rule="evenodd" d="M25.898 12.67a1.986 1.986 0 1 0 0-3.972 1.986 1.986 0 0 0 0 3.971Zm0 .75a2.736 2.736 0 1 0 0-5.472 2.736 2.736 0 0 0 0 5.471Z" clip-rule="evenodd"/>
  <path fill="#F6CED6" d="M35.213 19.819a3.64 3.64 0 1 1-7.28 0 3.64 3.64 0 0 1 7.28 0Z"/>
  <path fill="#760A16" fill-rule="evenodd" d="M31.573 22.709a2.89 2.89 0 1 0 0-5.78 2.89 2.89 0 0 0 0 5.78Zm0 .75a3.64 3.64 0 1 0 0-7.28 3.64 3.64 0 0 0 0 7.28Z" clip-rule="evenodd"/>
  <path fill="#ED2142" d="m38.135 30.89-5.5 5.5-4.3.776-1.122-1.123 2.383-2.768-17.692-17.119-2.64 2.505-1.057-1.141.49-4.479-2.612 2.479-1.163-1.076.713-4.054 5-5.5 27.5 26Z"/>
  <path fill="#760A16" fill-rule="evenodd" d="M10.265 4.554a.5.5 0 0 1 .37-.164h18.5a.5.5 0 0 1 .343.137l9 8.5a.5.5 0 0 1 .157.363v17.5a.5.5 0 0 1-.146.354l-5.5 5.5a.5.5 0 0 1-.265.138l-4.3.776a.5.5 0 0 1-.443-.14l-1.122-1.122a.5.5 0 0 1-.025-.68l2.076-2.41L11.9 16.848l-2.292 2.176A.5.5 0 0 1 8.897 19L7.84 17.86a.5.5 0 0 1-.13-.395l.342-3.122-1.623 1.54a.5.5 0 0 1-.684.004L4.583 14.81a.5.5 0 0 1-.153-.454l.713-4.054a.5.5 0 0 1 .122-.25l5-5.5Zm.591.836-4.753 5.23-.64 3.642.618.572 2.273-2.156a.5.5 0 0 1 .84.417l-.466 4.253.558.602 2.274-2.157a.5.5 0 0 1 .692.004l17.692 17.119a.5.5 0 0 1 .031.685l-2.08 2.416.609.61 3.888-.701 5.243-5.243V13.605L28.936 5.39h-18.08Z" clip-rule="evenodd"/>
  <path fill="#760A16" fill-rule="evenodd" d="M10.272 4.547a.5.5 0 0 1 .707-.02l27.5 26a.5.5 0 0 1-.687.726l-27.5-26a.5.5 0 0 1-.02-.706Z" clip-rule="evenodd"/>
</svg>
