<svg xmlns="http://www.w3.org/2000/svg" width="42" height="42" fill="none" viewBox="0 0 42 42">
  <path fill="#56686A" d="M.945 34.776v-8.741L15.62 40.474v.624H7.736l-6.79-6.322Z"/>
  <path fill="#F4C9DA" d="m23.423 38.63-.979-.959a1 1 0 0 1 .033-1.46l.98-.875a1 1 0 0 1 1.34.007l.958.875a1 1 0 0 1 .032 1.445l-.958.959a1 1 0 0 1-1.406.007Z"/>
  <path fill="#635A53" fill-rule="evenodd" d="M23.123 34.963a1.5 1.5 0 0 1 2.01.011l.959.875a1.5 1.5 0 0 1 .049 2.168l-.958.958a1.5 1.5 0 0 1-2.11.011l-.979-.957.35-.358-.35.358a1.5 1.5 0 0 1 .05-2.19l.979-.876Zm1.337.75a.5.5 0 0 0-.67-.004l-.98.875a.5.5 0 0 0-.016.73l.978.958a.5.5 0 0 0 .704-.004l.958-.958a.5.5 0 0 0-.017-.723l-.957-.874Z" clip-rule="evenodd"/>
  <path fill="#6C84A6" d="m.897 25.603 11.091-19.28h1.707l5.29 1.961 3.293-5.85 7.727-1.208c2.005-.158 1.93 1.373.58 1.748l-6.084 2.072-2.991 5.71 1.265 1.238 2.941-6.042 6.531-1.489c2.6-.52 2.711 1.57 1.295 2.137l-5.61 1.684-3.074 5.749.858.84 4.29-4.458c7.432-5.587 5.562-1.99 2.493 2.062-1.783 1.764-4.444 4.684-4.444 4.684l.801.784 5.821-3.222 1.426-5.22c.428-1.318 2.118-.872 1.93.186l-1.61 7.216-5.66 2.906 1.392 1.363 5.879-3.229 1.88-5.873c.332-.971 1.576-.767 1.576.235l-1.14 7.988-5.889 3.135.477.467 1.877 6.057L16.17 41.045.897 25.603Z"/>
  <path fill="#324031" fill-rule="evenodd" d="M30.734 3.452c.79-.225 1.431-.864 1.313-1.628-.06-.392-.32-.704-.692-.891-.362-.181-.832-.249-1.389-.205l-.02.002-7.985 1.248-3.203 5.69-4.973-1.846h-2.086L.274 25.684l15.802 15.979L37.415 30.2l-2.037-6.572-.079-.077 5.51-2.934 1.181-8.275v-.035c0-.74-.483-1.257-1.087-1.351-.603-.094-1.222.25-1.463.954l-1.822 5.693-5.379 2.954-.63-.618 5.25-2.696 1.665-7.456.002-.01c.153-.868-.486-1.45-1.141-1.565-.69-.12-1.464.233-1.757 1.137l-.004.012-1.373 5.027-5.311 2.94-.19-.186a301.289 301.289 0 0 1 1.224-1.32c.887-.95 1.993-2.115 2.877-2.99l.025-.025.022-.028c.772-1.02 1.476-2.02 1.98-2.863.252-.42.46-.812.602-1.154.134-.32.242-.674.208-.986a.815.815 0 0 0-.251-.52.845.845 0 0 0-.544-.212c-.33-.015-.721.116-1.143.313-.872.409-2.184 1.259-4.045 2.658l-.032.024-3.967 4.123-.23-.224 2.799-5.234 5.432-1.632.021-.008c.89-.357 1.426-1.26 1.147-2.099-.299-.896-1.34-1.27-2.726-.992l-6.777 1.545-2.743 5.634-.504-.493 2.726-5.204 5.883-2.003Zm-6.073 1.011 5.777-1.967.014-.003c.553-.154.615-.465.607-.517-.003-.017-.017-.081-.152-.149-.143-.072-.41-.135-.844-.103L23.238 2.79l1.423 1.672Zm-2.299-1.158-2.754 4.89 1.77 1.733 2.523-4.815-1.539-1.808Zm-3.651 5.411-4.375-1.623 21.412 21.108-1.25-4.035-15.787-15.45Zm17.27 21.119L12.637 6.822h-.36l-10.756 18.7 14.74 14.906 19.72-10.593ZM23.382 11.889l1.35 1.32 2.588-4.842-1.47-1.548-2.468 5.07Zm3.302-5.645 1.398 1.473 5.293-1.59c.509-.212.622-.63.55-.846-.052-.16-.365-.57-1.573-.329l-5.668 1.292Zm-.264 8.618 1.615 1.58.096-.104c.277-.302.667-.723 1.112-1.2a131.7 131.7 0 0 1 2.514-2.626l-1.713-1.416-3.624 3.766Zm4.395-4.427 1.599 1.322c.634-.855 1.195-1.668 1.606-2.354.24-.4.421-.745.537-1.024.053-.128.087-.229.107-.306-.111.03-.27.087-.49.19-.698.327-1.783 1.01-3.36 2.172Zm-1.129 7.623 1.169 1.144 4.795-2.462-1.1-1.375-4.864 2.693Zm5.54-3.448.936 1.168 1.38-6.185c.03-.188-.082-.353-.329-.396-.214-.037-.495.045-.63.45l-1.356 4.963Zm-2.24 6.677 1.563 1.53 4.974-2.649-1.58-1.602-4.957 2.721Zm5.616-3.477 1.395 1.415.993-6.949a.393.393 0 0 0-.082-.243.258.258 0 0 0-.158-.09.27.27 0 0 0-.186.04.45.45 0 0 0-.176.247l-1.786 5.58Z" clip-rule="evenodd"/>
  <path fill="#F4C9DA" d="m13.81 23.64-.978-.958a1 1 0 0 1 .033-1.46l.979-.875a1 1 0 0 1 1.34.007l.958.875a1 1 0 0 1 .033 1.445l-.958.958a1 1 0 0 1-1.407.008Z"/>
  <path fill="#635A53" fill-rule="evenodd" d="M13.51 19.974a1.5 1.5 0 0 1 2.012.011l.957.875a1.5 1.5 0 0 1 .05 2.168l-.959.958a1.5 1.5 0 0 1-2.11.011l-.978-.957.35-.358-.35.358a1.5 1.5 0 0 1 .05-2.191l.979-.875Zm1.337.75a.5.5 0 0 0-.67-.004l-.979.875a.5.5 0 0 0-.017.73l.98.958a.5.5 0 0 0 .702-.004l.959-.958a.5.5 0 0 0-.017-.723l-.958-.874Z" clip-rule="evenodd"/>
  <path fill="#F4C9DA" d="m19.127 30.207-.979-.957a1 1 0 0 1 .033-1.46l.98-.875a1 1 0 0 1 1.34.007l.958.874a1 1 0 0 1 .033 1.446l-.959.958a1 1 0 0 1-1.406.007Z"/>
  <path fill="#635A53" fill-rule="evenodd" d="M18.827 26.542a1.5 1.5 0 0 1 2.011.01l.958.875a1.5 1.5 0 0 1 .05 2.168l-.959.958a1.5 1.5 0 0 1-2.11.012l-.979-.958.35-.357-.35.357a1.5 1.5 0 0 1 .05-2.19l.98-.875Zm1.337.749a.5.5 0 0 0-.67-.004l-.98.875a.5.5 0 0 0-.016.73l.979.958a.5.5 0 0 0 .703-.004l.958-.958a.5.5 0 0 0-.016-.723l-.958-.874Z" clip-rule="evenodd"/>
  <path fill="#F4C9DA" d="m11.387 31.563-.979-.958a1 1 0 0 1 .033-1.46l.98-.875a1 1 0 0 1 1.34.007l.958.874a1 1 0 0 1 .032 1.446l-.958.958a1 1 0 0 1-1.406.008Z"/>
  <path fill="#635A53" fill-rule="evenodd" d="M11.087 27.897a1.5 1.5 0 0 1 2.01.01l.959.875a1.5 1.5 0 0 1 .049 2.169l-.958.958a1.5 1.5 0 0 1-2.11.011l-.979-.958.35-.357-.35.357a1.5 1.5 0 0 1 .05-2.19l.979-.875Zm1.337.75a.5.5 0 0 0-.67-.005l-.98.875a.5.5 0 0 0-.016.73l.978.958a.5.5 0 0 0 .704-.003l.958-.959a.5.5 0 0 0-.017-.722l-.957-.875Z" clip-rule="evenodd"/>
  <path fill="#F4C9DA" d="m4.871 20.438-.978-.957a1 1 0 0 1 .033-1.46l.979-.876a1 1 0 0 1 1.34.008l.958.874a1 1 0 0 1 .033 1.446l-.958.958a1 1 0 0 1-1.407.007Z"/>
  <path fill="#635A53" fill-rule="evenodd" d="M4.572 16.773a1.5 1.5 0 0 1 2.01.01l.958.875a1.5 1.5 0 0 1 .05 2.168l-.959.958a1.5 1.5 0 0 1-2.11.012l-.978-.958.35-.358-.35.358a1.5 1.5 0 0 1 .05-2.19l.979-.875Zm1.336.749a.5.5 0 0 0-.67-.004l-.979.875a.5.5 0 0 0-.017.73l.979.958a.5.5 0 0 0 .703-.004l.958-.958a.5.5 0 0 0-.016-.723l-.958-.874Z" clip-rule="evenodd"/>
  <path fill="#324031" fill-rule="evenodd" d="m.263 25.691 1-.015.131 8.658 6.577 6.215 8.132.133-.016 1-8.52-.14L.4 34.771l-.138-9.08Z" clip-rule="evenodd"/>
</svg>
