<svg xmlns="http://www.w3.org/2000/svg" width="43" height="48" fill="none" viewBox="0 0 43 48">
  <path fill="#F5BE43" d="M16.754 6.317.694 21.403l5.56 6.286 15.44-19.486-1.852-2.515-3.088.629Z"/>
  <path fill="#F3CC31" d="m35.222.688-31.027 28.5 8 7.5 25.5-33.571L35.222.688Z"/>
  <path fill="#F5BE43" d="M37.887 13.688 8.695 34.053l8.25 7.636 24.75-26.09-3.808-1.91Z"/>
  <path fill="#F3CC31" d="M36.695 28.689h-2.5l-10 6.5-5.5 5 6.5 6.5 11.5-14v-4Z"/>
  <path fill="#7A581F" fill-rule="evenodd" d="M38.633 3.172 35.506 0 14.69 18.427l7.75-10.172-2.276-3.079-3.557.722L0 21.448l5.007 5.714-1.932 1.894 14.436 13.312 1.22-1.434 6.213 6.5L37.225 33.01v-5.095h-3.14l-8.4 5.77 16.83-18.018-4.592-2.329L21.27 25.245 38.633 3.172ZM11.531 22.558 35.46 1.377l1.843 1.87L18.387 27.29l-9.542 5.726-4.318-3.982 1.511-1.482 5.493-4.994Zm7.47 5.537 19.01-13.59 2.864 1.452-19.04 20.384-3.124 3.124-.022-.023-.26.305-.088.088.007.007-.924 1.085-7.813-7.205L19 28.095Zm.4 12.094 5.5 5.753 11.324-13.3v-3.728h-1.83l-11.879 8.16-3.114 3.115Zm-8.576-18.34L21.19 8.246l-1.45-1.963-2.655.539L1.39 21.517l4.345 4.959 5.09-4.627Z" clip-rule="evenodd"/>
</svg>
