<svg xmlns="http://www.w3.org/2000/svg" width="44" height="43" fill="none" viewBox="0 0 44 43">
  <path fill="#F73019" d="m1.518 31.38-1-9 11-15h10l14.5 14-.5 10-15.5 10.5-9-1-9.5-9.5Z"/>
  <path fill="#FF1A00" d="m36.019 21.38-.5 10-4.5-4.5-19.5-19.5h10l9.5 9.172 5 4.827Z"/>
  <path fill="#F73019" d="m36.019 21.38-.5 10-4.5-4.5V16.551l5 4.827Z"/>
  <path fill="#B31D0C" d="m1.518 31.38-1-9 19.5 19.5-9-1-9.5-9.5Z"/>
  <path fill="#640200" fill-rule="evenodd" d="m35.165 31.733-24-24 .707-.707 24 24-.707.707Zm-15.5 10.5-19.5-19.5.707-.707 19.5 19.5-.707.707Z" clip-rule="evenodd"/>
  <path fill="#FF5449" d="M21.847 22.087a1 1 0 0 1 1.414 0l2.121 2.12a1 1 0 0 1 0 1.415l-2.12 2.121a1 1 0 0 1-1.415 0l-2.121-2.121a1 1 0 0 1 0-1.414l2.12-2.121Z"/>
  <path fill="#640200" fill-rule="evenodd" d="M21.546 21.786a1.375 1.375 0 0 1 1.945 0l2.121 2.121a1.375 1.375 0 0 1 0 1.945l-2.121 2.121a1.375 1.375 0 0 1-1.945 0l-2.121-2.121a1.375 1.375 0 0 1 0-1.945l2.121-2.121Zm1.414.53a.625.625 0 0 0-.883 0l-2.122 2.121a.625.625 0 0 0 0 .884l2.122 2.122c.244.244.64.244.883 0l2.122-2.122a.625.625 0 0 0 0-.884l-2.122-2.12Z" clip-rule="evenodd"/>
  <path fill="#FF5449" d="M10.847 17.087a1 1 0 0 1 1.414 0l2.121 2.12a1 1 0 0 1 0 1.415l-2.12 2.121a1 1 0 0 1-1.415 0l-2.121-2.121a1 1 0 0 1 0-1.414l2.12-2.121Z"/>
  <path fill="#640200" fill-rule="evenodd" d="M10.546 16.786a1.375 1.375 0 0 1 1.945 0l2.121 2.121a1.375 1.375 0 0 1 0 1.945l-2.121 2.121a1.375 1.375 0 0 1-1.945 0l-2.121-2.121a1.375 1.375 0 0 1 0-1.945l2.121-2.121Zm1.414.53a.625.625 0 0 0-.883 0l-2.122 2.121a.625.625 0 0 0 0 .884l2.122 2.122c.244.244.64.244.883 0l2.122-2.122a.625.625 0 0 0 0-.884l-2.122-2.12Z" clip-rule="evenodd"/>
  <path fill="#FF5449" d="M19.847 32.087a1 1 0 0 1 1.414 0l2.121 2.12a1 1 0 0 1 0 1.415l-2.12 2.121a1 1 0 0 1-1.415 0l-2.121-2.121a1 1 0 0 1 0-1.414l2.12-2.121Z"/>
  <path fill="#640200" fill-rule="evenodd" d="M31.018 16.38a.5.5 0 0 1 .5.5v10a.5.5 0 0 1-1 0v-10a.5.5 0 0 1 .5-.5ZM19.546 31.786a1.375 1.375 0 0 1 1.945 0l2.121 2.121a1.375 1.375 0 0 1 0 1.945l-2.121 2.121a1.375 1.375 0 0 1-1.945 0l-2.121-2.121a1.375 1.375 0 0 1 0-1.945l2.121-2.121Zm1.414.53a.625.625 0 0 0-.883 0l-2.122 2.121a.625.625 0 0 0 0 .884l2.122 2.122c.244.244.64.244.883 0l2.122-2.122a.625.625 0 0 0 0-.884l-2.122-2.12Z" clip-rule="evenodd"/>
  <path fill="#9C8214" d="m29.018.88-4 9.5 8 7.5 9.5-3.5-13.5-13.5Z"/>
  <path fill="#422400" fill-rule="evenodd" d="m28.846 0 14.579 14.578-10.703 3.943-.346-.938 9.236-3.403L29.191 1.76l-3.906 9.275-.921-.388L28.846 0Z" clip-rule="evenodd"/>
  <path fill="#826311" d="m36.019 3.38-8.5 9.5 2.5 2.5 10-8-4-4Z"/>
  <path fill="#422400" fill-rule="evenodd" d="m35.998 2.652 4.76 4.759-10.3 8.673-.644-.765 9.466-7.971-3.241-3.241-8.481 9.478-.745-.666 9.185-10.267Z" clip-rule="evenodd"/>
  <path fill="#640200" fill-rule="evenodd" d="M11.265 6.88h10.456l14.808 14.297-.524 10.476-15.859 10.744-9.357-1.04-9.748-9.748L0 22.24 11.265 6.879Zm.507 1L1.037 22.517l.959 8.632 9.252 9.252 8.643.96 15.14-10.257.477-9.524-14.192-13.7h-9.544Z" clip-rule="evenodd"/>
</svg>
