<svg xmlns="http://www.w3.org/2000/svg" width="44" height="43" fill="none" viewBox="0 0 44 43">
  <path fill="#EBCD21" d="M15.213 38.609v-6.26l4.644-4.44h4.795L35.05 41.384l-19.837-2.776Z"/>
  <path fill="#BB971A" d="m25.938 22.488-5.25-4.666L1 37.155l5.25 4.667 19.688-19.334Z"/>
  <path fill="#EBCD21" d="m25.938 22.488-5.25-4.666-4.834 4.982 5.068 4.894 5.016-5.21Z"/>
  <path fill="#F8771A" d="m25.938 22.488-5.25-4.666L19.352.55l23.522 23.27-16.936-1.332Z"/>
  <path fill="#FF9500" d="M42.249 23.059 19.375.489h9.84l14.06 13.71-1.026 8.86Z"/>
  <path fill="#EBCD21" d="M9.308 22.204h7.066l1.464-1.463.404-7.976L4.664 3.377l4.644 18.827Z"/>
  <path fill="#4B1600" fill-rule="evenodd" d="M19.251 0h10.092a.5.5 0 0 1 .352.144l13.804 13.634a.5.5 0 0 1 .147.391l-.642 9.181a.5.5 0 0 1-.523.465l-16.35-.816-4.49 4.41h3.011a.5.5 0 0 1 .396.194L35.446 41.08a.5.5 0 0 1-.465.8l-19.837-2.776a.5.5 0 0 1-.43-.495v-4.397L6.6 42.179a.5.5 0 0 1-.704-.004L1.13 37.397a.5.5 0 0 1 0-.706l13.973-13.987H9.308a.5.5 0 0 1-.486-.38L4.178 3.497a.5.5 0 0 1 .77-.531l13.578 9.388a.5.5 0 0 1 .215.437l-.334 6.607 1.763-1.766L18.753.542A.5.5 0 0 1 19.25 0Zm-3.538 33.23 4.91-4.822h3.783l9.5 12.312-18.193-2.546V33.23Zm1.639-12.777-1.25 1.251H9.699L5.466 4.54l12.262 8.48-.376 7.434Zm3.782-3.296L19.85 1.658l21.377 21.093-15.082-.753-5.01-4.84Zm21.499-2.829-.55 7.864L20.606 1h8.532l13.495 13.329Zm-21.743 4 4.33 4.164-4.453 4.374-4.297-4.115 4.42-4.424Zm-5.127 5.131 4.29 4.108-13.8 13.55-4.063-4.073L15.763 23.46Z" clip-rule="evenodd"/>
</svg>
