<svg xmlns="http://www.w3.org/2000/svg" width="44" height="44" fill="none" viewBox="0 0 44 44">
  <path fill="#ED9D3A" d="M25.938 23.667 20.688 19 1 38.333 6.25 43l19.688-19.333Z"/>
  <path fill="#EDA752" d="M18.719 2.333 19.5 1.5 42.344 25l-16.407-1.333L20.688 19 18.72 2.333Z"/>
  <path fill="#F0B162" d="M43 25 19.375 1.667 20.688 1l15.75 2 5.25 5.333L43 25Z"/>
  <path fill="#F9E291" d="m25.938 27.667-4.594.666L16.75 33l1.75 5.5 13.344.5 1.312-1.333-7.218-10Z"/>
  <path fill="#F9CC71" d="m12.5 27-6.196-3.377L7.534 8.44l.715-1.37 10.47 9.263v4.526L12.5 27Z"/>
  <path fill="#4D2203" fill-rule="evenodd" d="M36.672 2.526 20.636.489l-2.46.833 1.987 17.492-.944.928v-3.633L8.06 6.19l-.988 2.007L5.723 23.96l6.064 3.08L.267 38.352l6 5.332L16.464 33.67l1.9 5.146 13.679.695 1.766-1.795-7.643-10.588-3.567.518 3.526-3.463 17.42 1.361-1.373-17.432-5.5-5.586ZM19.074 37.85l-1.827-4.95 4.166-4.09.003.017 4.293-.623 6.795 9.412-.86.872-12.57-.638ZM12.54 26.3l5.679-5.577v-4.166L8.377 7.81l-.324.66-1.276 14.903 5.763 2.928Zm7.595-24.586.604-.204 15.464 1.963 5 5.08L42.396 23.7 20.136 1.714Zm-.842.573 1.87 16.465 4.981 4.428 15.532 1.214L19.293 2.288Zm5.912 21.397L6.233 42.315l-4.5-4 18.971-18.63 4.501 4Z" clip-rule="evenodd"/>
</svg>
