<svg xmlns="http://www.w3.org/2000/svg" width="48" height="47" fill="none" viewBox="0 0 48 47">
  <path fill="#ED9D3A" d="m17.534 40.955-2.062-5.749 3-4.437 5.686.688 6.686 10.435-13.31-.937Z"/>
  <path fill="#4D2203" fill-rule="evenodd" d="m18.532 30.273 5.92.716 7.35 11.472-14.628-1.03-2.172-6.056.94-.338 1.953 5.442 11.991.845-6.022-9.4-5.453-.658.12-.993Z" clip-rule="evenodd"/>
  <path fill="#ED9D3A" d="M6.411 27.77c2.02.937 6.124 2.862 6.374 3.062l2.937-2.687 1.875-8.311-10.748-7.686L6.41 27.77Z"/>
  <path fill="#4D2203" fill-rule="evenodd" d="m6.375 11.194 11.782 8.426-1.947 8.635-.976-.22 1.802-7.988-9.714-6.946-.402 14.354c1 .464 2.369 1.105 3.557 1.67.655.313 1.258.603 1.712.828.227.112.42.21.566.286.072.038.136.072.188.102.041.023.104.06.154.1l-.624.781.012.01-.039-.023a5.11 5.11 0 0 0-.156-.085 26.24 26.24 0 0 0-.544-.275c-.448-.221-1.045-.509-1.699-.82a473.998 473.998 0 0 0-3.846-1.806l-.299-.138.473-16.89Z" clip-rule="evenodd"/>
  <path fill="#ED9D3A" d="m25.311 26.488-5.25-4.666-18.899 19.32 4.462 4.68L25.31 26.488Z"/>
  <path fill="#4D2203" fill-rule="evenodd" d="M19.707 21.468a.5.5 0 0 1 .686-.02l5.25 4.667a.5.5 0 0 1 .018.73L5.974 46.18a.5.5 0 0 1-.705-.004L.503 41.397a.5.5 0 0 1 0-.706l19.204-19.223Zm.374 1.04L1.564 41.045l4.063 4.074 18.952-18.611-4.498-3.998Z" clip-rule="evenodd"/>
  <path fill="#F1DC90" d="M40.388 14.973c-2.596 2.596-6.47 2.93-8.655.745-2.185-2.185-1.851-6.06.744-8.655 2.596-2.596 6.47-2.93 8.656-.745 2.184 2.185 1.85 6.06-.745 8.655ZM23.995 31.367c-2.596 2.595-6.47 2.928-8.655.744-2.185-2.185-1.851-6.06.744-8.655 2.596-2.596 6.47-2.93 8.655-.745 2.185 2.185 1.852 6.06-.744 8.656Z"/>
  <path fill="#F1DC90" d="M25.833 31.86c-.95-3.547.699-7.07 3.683-7.869 2.984-.8 6.174 1.427 7.124 4.973.95 3.545-.7 7.068-3.683 7.867-2.985.8-6.174-1.426-7.124-4.972Zm-6-22.394c-.95-3.546.699-7.069 3.683-7.868 2.984-.8 6.173 1.426 7.123 4.972.95 3.546-.698 7.068-3.683 7.868-2.984.8-6.173-1.427-7.123-4.972Z"/>
  <path fill="#F1DC90" d="M37.985 27.618c-3.546-.95-5.772-4.14-4.972-7.124.8-2.984 4.322-4.633 7.868-3.683 3.545.95 5.772 4.14 4.972 7.124-.8 2.984-4.322 4.633-7.868 3.683Zm-22.393-6c-3.546-.95-5.772-4.14-4.973-7.124.8-2.984 4.322-4.633 7.868-3.683 3.546.95 5.772 4.14 4.972 7.124-.8 2.984-4.322 4.633-7.867 3.683Z"/>
  <path fill="#4D1C03" fill-rule="evenodd" d="M21.063 12.041a7.424 7.424 0 0 1-.517-.806l-.02-.036a7.825 7.825 0 0 1-.693-1.733c-.95-3.546.699-7.069 3.683-7.868 2.984-.8 6.173 1.426 7.123 4.972.155.575.24 1.15.263 1.712.015.384.002.763-.04 1.133.126-.288.272-.573.44-.85l.02-.034c.314-.518.7-1.013 1.155-1.468 2.596-2.596 6.47-2.93 8.656-.745 2.184 2.185 1.85 6.06-.745 8.655a7.837 7.837 0 0 1-1.32 1.064 7.45 7.45 0 0 1-1.032.552c.326-.037.66-.052.998-.044a7.82 7.82 0 0 1 1.847.266c3.545.95 5.772 4.14 4.972 7.124-.8 2.984-4.322 4.633-7.868 3.683a7.846 7.846 0 0 1-1.578-.61l-.036-.018a7.438 7.438 0 0 1-.961-.602c.187.253.36.522.517.806.3.54.542 1.134.713 1.77.95 3.545-.7 7.068-3.683 7.867-2.985.8-6.174-1.426-7.124-4.972a7.845 7.845 0 0 1-.26-1.667 7.46 7.46 0 0 1 .037-1.178 7.421 7.421 0 0 1-.464.893 7.81 7.81 0 0 1-1.15 1.46c-2.596 2.595-6.471 2.928-8.656.744-2.185-2.185-1.851-6.06.744-8.655.41-.41.85-.763 1.311-1.058l.04-.026a7.487 7.487 0 0 1 1.002-.532c-.313.035-.632.05-.956.045h-.047a7.827 7.827 0 0 1-1.842-.267c-3.546-.95-5.772-4.14-4.973-7.124.8-2.984 4.323-4.633 7.868-3.683a7.84 7.84 0 0 1 1.574.608c.356.184.691.393 1.002.622Zm-.264-2.834c-.851-3.175.674-6.027 2.976-6.643 2.301-.617 5.048 1.09 5.899 4.265.155.58.23 1.148.238 1.695l-8.4 2.394a6.837 6.837 0 0 1-.713-1.711Zm-2.665 13.906c-.468.278-.92.627-1.343 1.05-2.324 2.324-2.429 5.556-.744 7.24 1.685 1.686 4.917 1.58 7.241-.743a6.85 6.85 0 0 0 1.122-1.467l-6.276-6.08Zm6.718 5.116-5.762-5.581c1.846-.708 3.77-.403 4.942.77 1.146 1.146 1.464 3.007.82 4.811Zm-2.358-10.553c-.42 1.564-1.87 2.77-3.754 3.114l1.952-7.778c1.534 1.244 2.23 3.062 1.802 4.664Zm-4.266-5.899a6.874 6.874 0 0 1 1.583.639l-2.128 8.474a6.84 6.84 0 0 1-1.833-.238c-3.175-.851-4.881-3.598-4.265-5.899.617-2.301 3.468-3.827 6.643-2.976Zm11.607-2.192c-.312 1.948-1.537 3.458-3.137 3.887-1.563.419-3.331-.234-4.572-1.69l7.709-2.197Zm2.605 5.426c-1.143-1.144-1.462-3-.823-4.801l5.755 5.575c-1.842.703-3.76.397-4.932-.774Zm7.241-.745c-.425.425-.88.776-1.35 1.055l-6.273-6.077a6.832 6.832 0 0 1 1.126-1.474c2.325-2.325 5.557-2.43 7.242-.745 1.684 1.685 1.58 4.917-.745 7.241Zm-3.024 11.745a6.87 6.87 0 0 0 1.587.641c3.175.85 6.026-.675 6.643-2.976s-1.09-5.048-4.265-5.899a6.836 6.836 0 0 0-1.838-.238l-2.127 8.472Zm1.07-8.371-1.951 7.774c-1.531-1.244-2.226-3.06-1.797-4.66.418-1.563 1.868-2.768 3.749-3.114Zm-7.952 7.317c1.564-.419 3.334.235 4.574 1.694l-7.712 2.198c.31-1.95 1.536-3.463 3.138-3.892ZM26.799 31.6a6.872 6.872 0 0 1-.238-1.69l8.403-2.394c.299.507.541 1.078.71 1.706.85 3.175-.675 6.027-2.976 6.643-2.302.617-5.048-1.09-5.899-4.265Zm-4.268-18.09c.953 1.309 1.339 2.894.928 4.425-.41 1.53-1.537 2.71-3.016 3.368 1.61-.17 3.176.287 4.296 1.408 1.121 1.121 1.58 2.687 1.41 4.297.657-1.48 1.836-2.607 3.367-3.017 1.531-.41 3.116-.024 4.425.928-.952-1.309-1.338-2.894-.928-4.425.41-1.53 1.537-2.71 3.016-3.367-1.61.17-3.175-.288-4.296-1.41-1.12-1.12-1.579-2.686-1.409-4.295-.657 1.479-1.837 2.606-3.368 3.016-1.53.41-3.116.024-4.425-.928Z" clip-rule="evenodd"/>
  <path fill="#F1BA15" d="m35.478 17.15-1.834 7.304-7.241 2.064-5.408-5.24 1.833-7.303 7.242-2.064 5.408 5.24Z"/>
  <path fill="#F7C419" d="m35.478 17.15-1.834 7.304-10.816-10.479 7.242-2.064 5.408 5.24Z"/>
  <path fill="#4D1C03" fill-rule="evenodd" d="m34.367 17.467-4.578-4.436-6.132 1.747-1.552 6.184 4.579 4.436 6.13-1.747 1.553-6.184Zm-.723 6.987 1.834-7.303-5.408-5.24-7.242 2.064-1.833 7.303 5.408 5.24 7.241-2.064Z" clip-rule="evenodd"/>
  <path fill="#4D1C03" fill-rule="evenodd" d="m32.678 24.443-9.624-9.624.707-.707 9.624 9.624-.707.707Z" clip-rule="evenodd"/>
</svg>
