<svg xmlns="http://www.w3.org/2000/svg" width="45" height="45" fill="none" viewBox="0 0 45 45">
  <path fill="#522810" d="m27.139 6.003-3.454 3.455 2.467 2.469 6.908-5.924L22.205.573 17.27 4.028l1.974 1.975 4.44-1.975 3.455 1.975Zm7.401 1.975-6.908 6.417 2.468 2.962 6.908-6.911-2.467-2.468Zm4.935 3.949-6.908 6.91 2.467 2.962 3.454-3.455 1.974 3.455-1.974 1.975 1.974 2.962 3.947-3.95-4.934-10.86Z"/>
  <path fill="#E4340A" d="m.493 31.672 11.843 12.834h9.375L.493 21.8v9.873Z"/>
  <path fill="#F23E05" d="m23.685 9.458-1.48 1.481-.494 1.481 1.974 1.975.987-.494 1.48-1.974-2.467-2.469Zm3.947 4.937-1.973.493-.494 1.481 2.467 2.468 1.974-.493.494-.988-2.468-2.961Zm4.935 4.442-1.974.494-.493 1.975 1.973 1.974h1.48l1.481-1.48-2.467-2.963Zm-21.711-8.391L.493 21.799l21.218 22.707 11.843-10.86-22.698-23.2Z"/>
  <path fill="#FF510C" d="m22.205 10.94-11.35-.494 22.699 23.2V23.28h-1.48L30.1 21.306l.493-1.975-.987-.987-1.974.493-2.467-2.468.494-1.48-.987-.988-.987.494-1.974-1.975.494-1.48Z"/>
  <path fill="#3A0D00" fill-rule="evenodd" d="m34.554 7.293 3.152 3.153-7.146 7.148-3.113-3.737 7.107-6.564Zm-5.749 6.653 1.821 2.186 5.684-5.686-1.783-1.784-5.722 5.284Z" clip-rule="evenodd"/>
  <path fill="#C82A05" fill-rule="evenodd" d="M33.201 33.992 10.503 10.79l.705-.69 22.698 23.2-.705.69ZM21.35 44.843.134 22.136l.72-.674L22.073 44.17l-.721.675Z" clip-rule="evenodd"/>
  <path fill="#3A0D00" fill-rule="evenodd" d="M22.162 0 33.95 5.896l-7.332 6.207-3.137-3.138 2.852-2.854-2.676-1.53-4.522 2.01-2.63-2.63L22.163 0Zm.085 1.146-4.212 2.95 1.318 1.318 4.36-1.938 4.232 2.419-3.069 3.07 1.797 1.798L32.17 6.11l-9.923-4.964Zm17.383 9.928L45 22.894l-4.615 4.616-2.532-3.8 1.993-1.993-1.466-2.567-2.886 2.887-2.927-3.693 7.063-7.27Zm-5.902 7.3 1.833 2.2 3.035-3.036 2.481 4.344-1.954 1.955 1.416 2.124 3.28-3.282-4.499-9.9-5.592 5.595Z" clip-rule="evenodd"/>
  <path fill="#C82A05" fill-rule="evenodd" d="m21.736 10.783.937.312-.397 1.192 1.506 1.507.67-.334.44.883-1.305.652-2.44-2.441.59-1.77Zm3.454 3.949.937.313-.397 1.191 2.054 2.055 1.703-.426.239.958-2.245.561-2.88-2.881.59-1.77Zm4.924 4.479.958.24-.426 1.703 1.632 1.633h1.276v.987h-1.685l-2.316-2.317.561-2.246Z" clip-rule="evenodd"/>
  <path fill="#6B1600" fill-rule="evenodd" d="m23.685 8.76 3.119 3.12-1.48 1.975.486.487 2.003-.501 2.872 3.447-.478.958.537.538 2.004-.5 2.954 3.546-1.655 1.655v10.379L21.903 45H12.12L0 31.865V21.608L10.647 9.942l11.362.495 1.676-1.677Zm0 1.396L22.4 11.442l-11.335-.493L.987 21.99v9.488l11.565 12.534h8.967L33.06 33.429V23.076l1.306-1.307-1.98-2.377-1.944.486-1.436-1.437.508-1.017-2.062-2.475-1.945.486-1.487-1.488 1.48-1.974-1.815-1.817Z" clip-rule="evenodd"/>
</svg>
