<svg xmlns="http://www.w3.org/2000/svg" width="43" height="40" fill="none" viewBox="0 0 43 40">
  <path fill="#FDD766" d="m16.525 10.375-16 14.5 3.462 3.277 16.038-16.277v-6.5l-4.5-5h-9.5l-2.5 2.5v10.5l6.5 1 5-5-3-3-3.5 3h-1.5v-4l1-1h6l2.5 2.5v3.5Z"/>
  <path fill="#E2AA54" d="m29.525 4.375-24.5 25.5 2.5 2.5 24-24.5 1.5-.5 5 4v5l-1.5 1h-4v-2.5l2.5-2-2.5-2-4 3.5-.5 3 1.5 4 9.5-.5 3-3v-9l-6.5-4.5h-6Z"/>
  <path fill="#E2AA54" d="m11.025 35.875-2-3 6.5-5.5 4-4 3-1 5.5.5 4.5 3v9l-4 4h-6.5l-2-1.5-.5-4.5 1-3 4-2 1.5 2.5-3 2.5 1 1.5h3.5l1-1.5v-5l-3.5-2.5h-3l-11 10.5Z"/>
  <path fill="#7A581F" fill-rule="evenodd" d="M5.87 0h9.822L20.4 5.231v6.793L3.88 28.798 0 24.845l16.15-14.636V7.03l-2.28-2.28H8.18l-.78.78V9h.986l3.659-3.136 3.51 3.511-5.4 5.4-7.005-1.078V2.72L5.87 0Zm.31.75L3.9 3.03v10.023l5.994.922 4.6-4.6-2.489-2.49L8.664 9.75H6.65V5.22L7.87 4h6.31l2.72 2.72v3.821L1.05 24.905l2.85 2.777 15.75-15.956V5.52L15.358.75H6.18ZM29.365 4h6.277L42.4 8.679v9.351l-3.212 3.212-9.918.522-1.631-4.351.538-3.232 4.337-3.795 3.111 2.489-2.725 2.18V17h3.511l1.239-.826v-4.619l-4.7-3.76-1.22.407L7.527 32.908 4.5 29.88 29.365 4Zm.32.75L5.55 29.87l1.972 1.972L31.32 7.548l1.78-.593 5.3 4.24v5.38l-1.762 1.175H32.15v-3.055l2.275-1.82-1.89-1.511-3.662 3.205-.462 2.768 1.368 3.65 9.082-.479 2.789-2.788V9.07l-6.242-4.32h-5.723Z" clip-rule="evenodd"/>
  <path fill="#7A581F" fill-rule="evenodd" d="m28.154 22.51-5.673-.516-3.159 1.053-4.051 4.052-6.744 5.706 2.434 3.65L22.175 25.75h2.73l3.245 2.318v4.693L27.324 34h-3.098l-.702-1.053 2.988-2.49-1.844-3.073-4.45 2.225-1.075 3.226.527 4.743 2.23 1.672h6.78l4.22-4.22v-9.356l-4.746-3.164Zm-8.427 1.193 2.842-.947 5.327.484 4.254 2.836v8.644l-3.78 3.78h-6.22l-1.77-1.328-.473-4.256.924-2.775 3.551-1.775 1.156 1.927-3.012 2.51 1.298 1.947h3.902l1.174-1.761v-5.307L25.145 25h-3.27L11.089 35.295l-1.567-2.35 6.257-5.294 3.948-3.948Z" clip-rule="evenodd"/>
</svg>
